<?xml version="1.0" encoding="UTF-8" standalone="no"?><svg xmlns="http://www.w3.org/2000/svg" xmlns:xlink="http://www.w3.org/1999/xlink" contentScriptType="text/ecmascript" fill="#000000" width="365" zoomAndPan="magnify" contentStyleType="text/css" viewBox="62.7 255.1 365.0 52.6" height="52.6" preserveAspectRatio="xMidYMid meet" version="1"><g id="change1_1"><path fill="#38b6ff" d="M259.42,284.36H203.5l4.15,7.18h44.59L259.42,284.36z M202.62,282.82h58.34l17.28-17.28h-85.59L202.62,282.82z M348.61,305.84h-12.05c3.1-3.1,6.21-6.2,9.31-9.31h12.12c-3.1,3.1-6.2,6.21-9.31,9.31H348.61z M332.94,305.84h-7.74l9.31-9.31h7.82 l-9.31,9.31H332.94z M321.58,305.84h-7.74l9.31-9.31h7.82l-9.31,9.31H321.58z M298.47,305.53l9-9h12.12l-9.31,9.31h-12.12 L298.47,305.53z M85.33,277.81h77.36l2.9,5.02h35.26l-9.98-17.28H67.66c-0.32,1.02-1.28,1.76-2.4,1.76c-1.39,0-2.52-1.13-2.52-2.52 c0-1.39,1.13-2.52,2.52-2.52c1.13,0,2.08,0.74,2.4,1.76h122.33l-2.26-3.91H80.94v-1.53h107.67l3.14,5.45h88.01l7.14-7.14h132.55 c0.32-1.02,1.28-1.76,2.4-1.76c1.39,0,2.52,1.13,2.52,2.52c0,1.39-1.13,2.52-2.52,2.52c-1.13,0-2.08-0.74-2.4-1.76H287.55 l-5.61,5.61h116.52v1.53H280.4l-17.28,17.28h164.6v1.53H261.59l-8.72,8.72h-46.1l-5.03-8.72h-35.26l12.64,21.89h107.4l15.06-15.06 h121.24c0.32-1.02,1.28-1.76,2.4-1.76c1.39,0,2.52,1.13,2.52,2.52c0,1.39-1.13,2.52-2.52,2.52c-1.13,0-2.08-0.74-2.4-1.76h-120.6 l-15.06,15.06H178.23l-13.53-23.43H81.88c-0.32,1.02-1.28,1.76-2.4,1.76c-1.39,0-2.52-1.13-2.52-2.52c0-1.39,1.13-2.52,2.52-2.52 c1.13,0,2.08,0.74,2.4,1.76h81.94l-2.01-3.48H85.33V277.81z"/></g></svg>